<?xml version='1.0' encoding='utf-8'?>
<!DOCTYPE svg PUBLIC '-//W3C//DTD SVG 1.1//EN' 'http://www.w3.org/Graphics/SVG/1.1/DTD/svg11.dtd'>
<svg fill="#000000" height="800px" width="800px" version="1.1" xmlns="http://www.w3.org/2000/svg" viewBox="0 0 512 512" xmlns:xlink="http://www.w3.org/1999/xlink" enable-background="new 0 0 512 512">
  <g>
    <path d="M386.1,258.2h65.5c20.6,0,25.5-22.5,14.8-34.5L270.7,17.1c-7.7-8.2-21.9-8.2-29.7,0L45.4,223.7   c-10.5,10-8.9,34.5,14.8,34.5h65.5L44.2,360.6c-10.1,14.1-2,33.2,16,33.2h175.3v86.8c0,11.3,9.1,20.4,20.4,20.4   c11.3,0,20.4-9.1,20.4-20.4v-86.8h175.3c0.1,0,0.1,0,0.2,0c16.8,0,26.5-19.4,14.3-35L386.1,258.2z M102.6,352.9l81.5-102.3   c8.4-10.6,5.3-33.2-16-33.2h-60.4L255.9,60.9l148.2,156.5h-60.4c-23.1,0-26.3,22.8-16,33.2l81.5,102.3H102.6z"/>
  </g>
</svg>